<svg width="45" height="24" viewBox="0 0 45 24" fill="none" xmlns="http://www.w3.org/2000/svg">
<g filter="url(#filter0_iif_28_614)">
<path d="M25.1806 12.653C25.5027 11.7824 26.7341 11.7824 27.0563 12.653L30.2803 21.3658C30.3816 21.6395 30.5974 21.8553 30.8711 21.9566L39.5839 25.1806C40.4545 25.5028 40.4545 26.7342 39.5839 27.0563L30.8711 30.2803C30.5974 30.3816 30.3816 30.5974 30.2803 30.8712L27.0563 39.584C26.7341 40.4546 25.5027 40.4546 25.1806 39.584L21.9565 30.8712C21.8552 30.5974 21.6394 30.3816 21.3657 30.2803L12.6529 27.0563C11.7823 26.7342 11.7823 25.5028 12.6529 25.1806L21.3657 21.9566C21.6394 21.8553 21.8552 21.6395 21.9565 21.3658L25.1806 12.653Z" fill="url(#paint0_linear_28_614)"/>
</g>
<defs>
<filter id="filter0_iif_28_614" x="0" y="0" width="52.2369" height="52.2369" filterUnits="userSpaceOnUse" color-interpolation-filters="sRGB">
<feFlood flood-opacity="0" result="BackgroundImageFix"/>
<feBlend mode="normal" in="SourceGraphic" in2="BackgroundImageFix" result="shape"/>
<feColorMatrix in="SourceAlpha" type="matrix" values="0 0 0 0 0 0 0 0 0 0 0 0 0 0 0 0 0 0 127 0" result="hardAlpha"/>
<feOffset dy="2"/>
<feGaussianBlur stdDeviation="1"/>
<feComposite in2="hardAlpha" operator="arithmetic" k2="-1" k3="1"/>
<feColorMatrix type="matrix" values="0 0 0 0 0.94902 0 0 0 0 0.74902 0 0 0 0 0.341176 0 0 0 0.75 0"/>
<feBlend mode="normal" in2="shape" result="effect1_innerShadow_28_614"/>
<feColorMatrix in="SourceAlpha" type="matrix" values="0 0 0 0 0 0 0 0 0 0 0 0 0 0 0 0 0 0 127 0" result="hardAlpha"/>
<feOffset dy="-4"/>
<feGaussianBlur stdDeviation="1"/>
<feComposite in2="hardAlpha" operator="arithmetic" k2="-1" k3="1"/>
<feColorMatrix type="matrix" values="0 0 0 0 0.905882 0 0 0 0 0.466667 0 0 0 0 0.192157 0 0 0 0.75 0"/>
<feBlend mode="normal" in2="effect1_innerShadow_28_614" result="effect2_innerShadow_28_614"/>
<feGaussianBlur stdDeviation="6" result="effect3_foregroundBlur_28_614"/>
</filter>
<linearGradient id="paint0_linear_28_614" x1="26.1184" y1="10.1185" x2="26.1184" y2="42.1185" gradientUnits="userSpaceOnUse">
<stop stop-color="#F2BF57"/>
<stop offset="0.25" stop-color="#EFAD4E"/>
<stop offset="0.5" stop-color="#ED9B44"/>
<stop offset="0.75" stop-color="#EA893B"/>
<stop offset="1" stop-color="#E77731"/>
</linearGradient>
</defs>
</svg>
